# xmcd
#
# Track frame offsets:
#	150
#	10100
#	25725
#	42050
#	57100
#	67050
#	76750
#	88100
#	98900
#	112200
#	124550
#	139375
#	153075
#	167625
#	182100
#	193600
#	206775
#	219350
#	232450
#	245250
#	254025
#	268000
#	279700
#	289925
#	302975
#	312475
#
# Disc length: 4332
#
# Revision: 2
# Processed by: cddbd v1.5.1PL0 Copyright (c) Steve Scherf et al.
# Submitted via: audiograbber 1.80
# Normalized: r1:DSETVAR1
#
DISCID=8710ea1a
DTITLE=Various Artist - Country and Western
DYEAR=1900
DGENRE=
TTITLE0=Tex Ritter - Night Herding Song
TTITLE1=Sonny James - Jenny Lou
TTITLE2=Roy Acuff - Were You There
TTITLE3=Don Gibson - Run Boy
TTITLE4=Jimmy Reed - Let's Get Together
TTITLE5=Jonny Cash - Folsom Prison Blues
TTITLE6=Conway Twitty - Blue Is The Way That I Feel
TTITLE7=Willie Nelson - Home Is Were Your Happy
TTITLE8=Patsy Cline - I've Loved And Lost Again
TTITLE9=Faron Young - Hello Walls
TTITLE10=Don Williams - Where Do We Go From Here?
TTITLE11=George Jones - Worlds Worst Loser
TTITLE12=Johnny Paycheck - Georgia In A Jug
TTITLE13=Dolly Parton - Release Me
TTITLE14=Ray Pillow - How Do I Hide From A Memory
TTITLE15=Rex Allen jr. - Memory Train
TTITLE16=Frankie Laine - Sixteen Tons
TTITLE17=Eddie Jones - Deep In The Heart Of Texas
TTITLE18=Donna Fargo - Sticks And Stones
TTITLE19=Roger MillerK - King Of The Road
TTITLE20=Jerry Lee Lewis and Linda Gail Lewis - Jackson
TTITLE21=Stu Stevens - Love Me Tender
TTITLE22=Ray Price - Rain And Tears
TTITLE23=Dolly Parton - Letter To Heaven
TTITLE24=Freddy - Oh, Lonesome Me
TTITLE25=T. Astor - Devil
EXTD=
EXTT0=
EXTT1=
EXTT2=
EXTT3=
EXTT4=
EXTT5=
EXTT6=
EXTT7=
EXTT8=
EXTT9=
EXTT10=
EXTT11=
EXTT12=
EXTT13=
EXTT14=
EXTT15=
EXTT16=
EXTT17=
EXTT18=
EXTT19=
EXTT20=
EXTT21=
EXTT22=
EXTT23=
EXTT24=
EXTT25=
PLAYORDER=
